# xmcd
#
# Track frame offsets: 
#        150
#        12767
#        25936
#        38209
#        39835
#        47289
#        56067
#        68757
#        78761
#        92011
#        104743
#        115567
#        131997
#        144192
#        155235
#        168667
#        181502
#        194707
#        207063
#
# Disc length: 3113 seconds
#
# Revision: 0
# Processed by: cddbd v1.5.2PL0 Copyright (c) Steve Scherf et al.
# Submitted via: ExactAudioCopyFreeDBPlugin 1.0
#
DISCID=f80c2713
DTITLE=Various Artist - Down The Overlander's Trail  CD 2
DYEAR=2012
DGENRE=Country
TTITLE0=The Two Barnstormers - Wildflower Waltz 
TTITLE1=Tim McNamara - I’ve Got Five Dollars and It’s Saturday Night 
TTITLE2=Tim McNamara with the McKean Sisters - Red River Valley 
TTITLE3=Reg Lindsay - The Country Hour 
TTITLE4=Reg Lindsay - Then I’ll Keep On Loving You 
TTITLE5=Reg Lindsay - Down By the Old Slip Rail 
TTITLE6=Queenie and David Kaili - When It’s Springtime in the Rockies 
TTITLE7=Mayo Hunter - Honolulu March 
TTITLE8=Harry Cash - The Black Yodel 
TTITLE9=Buddy Williams - On the Gundagai Line 
TTITLE10=Buddy Williams - The Overlander Trail 
TTITLE11=Johnny Ashcroft -  Little Boy Lost 
TTITLE12=Chad Morgan - The Duckinwilla Dance 
TTITLE13=Chad Morgan - The Sheik of Scrubby Creek 
TTITLE14=Tex Croft - Chicken Yodel 
TTITLE15=The McKean Sisters - Where the Frangipani Grow 
TTITLE16=Slim Dusty - The Rain Still Tumbles Down 
TTITLE17=Smoky Dawson - When the Bloom is on the Sage 
TTITLE18=Smoky Dawson - Radio Serial Episode 110 
EXTD=
EXTT0=
EXTT1=
EXTT2=
EXTT3=
EXTT4=
EXTT5=
EXTT6=
EXTT7=
EXTT8=
EXTT9=
EXTT10=
EXTT11=
EXTT12=
EXTT13=
EXTT14=
EXTT15=
EXTT16=
EXTT17=
EXTT18=
PLAYORDER=
